<?xml version="1.0" encoding="utf-8"?>
<svg xmlns="http://www.w3.org/2000/svg">
  <defs>
    <symbol id="icon-check" viewBox="0 0 24 24" fill="none">
      <path stroke="currentColor" stroke-linecap="round" stroke-linejoin="round" d="M5 13l4 4L19 7" />
    </symbol>

    <symbol id="eye" viewBox="0 0 24 24" fill="none">
      <path
        stroke="currentColor"
        stroke-linecap="round"
        stroke-linejoin="round"
        stroke-width="2"
        d="M2.458 12C3.732 7.943 7.522 5 12 5c4.478 0 8.268 2.943 9.542 7-1.274 4.057-5.064 7-9.542 7-4.478 0-8.268-2.943-9.542-7z"
      />
      <path
        stroke="currentColor"
        stroke-linecap="round"
        stroke-linejoin="round"
        stroke-width="2"
        d="M15 12a3 3 0 11-6 0 3 3 0 016 0z"
      />
    </symbol>

    <symbol id="icon-hamburger" viewBox="0 0 24 24" fill="none">
      <path d="M3 17H21M3 12H21M3 7H21" stroke="currentColor" stroke-width="2" stroke-linecap="round" stroke-linejoin="round" />
    </symbol>

    <symbol id="icon-close" viewBox="0 0 24 24" fill="none">
      <path d="M18 6L6 18M6 6L18 18" stroke="currentColor" stroke-width="2" stroke-linecap="round" />
    </symbol>

    <symbol id="icon-search" viewBox="0 0 24 24" fill="none">
      <path
        d="M21 21L15.8 15.8M18 10.5C18 14.6421 14.6421 18 10.5 18C6.35786 18 3 14.6421 3 10.5C3 6.35786 6.35786 3 10.5 3C14.6421 3 18 6.35786 18 10.5Z"
        stroke="currentColor"
        stroke-width="1.8"
        stroke-linecap="round"
        stroke-linejoin="round"
      />
    </symbol>

    <symbol id="icon-bag" viewBox="0 0 24 24" fill="none">
      <path
        fill="currentColor"
        fill-rule="evenodd"
        clip-rule="evenodd"
        d="M16.5285 6C16.5098 5.9193 16.4904 5.83842 16.4701 5.75746C16.2061 4.70138 15.7904 3.55383 15.1125 2.65C14.4135 1.71802 13.3929 1 12 1C10.6071 1 9.58648 1.71802 8.88749 2.65C8.20962 3.55383 7.79387 4.70138 7.52985 5.75747C7.50961 5.83842 7.49016 5.9193 7.47145 6H5.8711C4.29171 6 2.98281 7.22455 2.87775 8.80044L2.14441 19.8004C2.02898 21.532 3.40238 23 5.13777 23H18.8622C20.5976 23 21.971 21.532 21.8556 19.8004L21.1222 8.80044C21.0172 7.22455 19.7083 6 18.1289 6H16.5285ZM8 11C8.57298 11 8.99806 10.5684 9.00001 9.99817C9.00016 9.97438 9.00044 9.9506 9.00084 9.92682C9.00172 9.87413 9.00351 9.79455 9.00718 9.69194C9.01451 9.48652 9.0293 9.18999 9.05905 8.83304C9.08015 8.57976 9.10858 8.29862 9.14674 8H14.8533C14.8914 8.29862 14.9198 8.57976 14.941 8.83305C14.9707 9.18999 14.9855 9.48652 14.9928 9.69194C14.9965 9.79455 14.9983 9.87413 14.9992 9.92682C14.9996 9.95134 14.9999 9.97587 15 10.0004C15 10.0004 15 11 16 11C17 11 17 9.99866 17 9.99866C16.9999 9.9636 16.9995 9.92854 16.9989 9.89349C16.9978 9.829 16.9957 9.7367 16.9915 9.62056C16.9833 9.38848 16.9668 9.06001 16.934 8.66695C16.917 8.46202 16.8953 8.23812 16.8679 8H18.1289C18.6554 8 19.0917 8.40818 19.1267 8.93348L19.86 19.9335C19.8985 20.5107 19.4407 21 18.8622 21H5.13777C4.55931 21 4.10151 20.5107 4.13998 19.9335L4.87332 8.93348C4.90834 8.40818 5.34464 8 5.8711 8H7.13208C7.10465 8.23812 7.08303 8.46202 7.06595 8.66696C7.0332 9.06001 7.01674 9.38848 7.00845 9.62056C7.0043 9.7367 7.00219 9.829 7.00112 9.89349C7.00054 9.92785 7.00011 9.96221 7 9.99658C6.99924 10.5672 7.42833 11 8 11ZM9.53352 6H14.4665C14.2353 5.15322 13.921 4.39466 13.5125 3.85C13.0865 3.28198 12.6071 3 12 3C11.3929 3 10.9135 3.28198 10.4875 3.85C10.079 4.39466 9.76472 5.15322 9.53352 6Z"
      />
    </symbol>

    <symbol id="user" viewBox="0 0 35 35" fill="none">
      <path
        fill="currentColor"
        fill-rule="evenodd"
        clip-rule="evenodd"
        d="M17.0625 0C7.65434 0 0 7.65434 0 17.0625C0 26.4707 7.65434 34.125 17.0625 34.125C26.4707 34.125 34.125 26.4707 34.125 17.0625C34.125 7.65434 26.4707 0 17.0625 0ZM12.9429 9.58289C13.9822 8.48121 15.4448 7.875 17.0625 7.875C18.6802 7.875 20.1296 8.48531 21.1731 9.59273C22.2305 10.7149 22.7448 12.2227 22.6234 13.8436C22.3806 17.0625 19.8868 19.6875 17.0625 19.6875C14.2382 19.6875 11.7395 17.0625 11.5016 13.8428C11.381 12.2087 11.8945 10.6961 12.9429 9.58289ZM17.0625 31.5C13.1685 31.5026 9.43962 29.9276 6.72656 27.1343C7.49565 26.0375 8.47559 25.105 9.60914 24.3912C11.7001 23.0508 14.3464 22.3125 17.0625 22.3125C19.7786 22.3125 22.4249 23.0508 24.5134 24.3912C25.6479 25.1046 26.6287 26.0372 27.3984 27.1343C24.6856 29.9279 20.9565 31.5029 17.0625 31.5Z"
      />
    </symbol>

    <symbol id="logout" viewBox="0 0 16 16" fill="none">
      <path
        fill="currentColor"
        fill-rule="evenodd"
        clip-rule="evenodd"
        d="M6 12.5C6 12.6326 6.05268 12.7598 6.14645 12.8536C6.24021 12.9473 6.36739 13 6.5 13H14.5C14.6326 13 14.7598 12.9473 14.8536 12.8536C14.9473 12.7598 15 12.6326 15 12.5V3.5C15 3.36739 14.9473 3.24021 14.8536 3.14645C14.7598 3.05268 14.6326 3 14.5 3H6.5C6.36739 3 6.24021 3.05268 6.14645 3.14645C6.05268 3.24021 6 3.36739 6 3.5V5.5C6 5.63261 5.94732 5.75979 5.85355 5.85355C5.75979 5.94732 5.63261 6 5.5 6C5.36739 6 5.24021 5.94732 5.14645 5.85355C5.05268 5.75979 5 5.63261 5 5.5V3.5C5 3.10218 5.15804 2.72064 5.43934 2.43934C5.72064 2.15804 6.10218 2 6.5 2H14.5C14.8978 2 15.2794 2.15804 15.5607 2.43934C15.842 2.72064 16 3.10218 16 3.5V12.5C16 12.8978 15.842 13.2794 15.5607 13.5607C15.2794 13.842 14.8978 14 14.5 14H6.5C6.10218 14 5.72064 13.842 5.43934 13.5607C5.15804 13.2794 5 12.8978 5 12.5V10.5C5 10.3674 5.05268 10.2402 5.14645 10.1464C5.24021 10.0527 5.36739 10 5.5 10C5.63261 10 5.75979 10.0527 5.85355 10.1464C5.94732 10.2402 6 10.3674 6 10.5V12.5Z"
      />
      <path
        fill="currentColor"
        fill-rule="evenodd"
        clip-rule="evenodd"
        d="M0.146894 8.35414C0.100331 8.3077 0.0633877 8.25252 0.0381813 8.19178C0.0129748 8.13103 0 8.06591 0 8.00014C0 7.93438 0.0129748 7.86926 0.0381813 7.80851C0.0633877 7.74776 0.100331 7.69259 0.146894 7.64614L3.14689 4.64614C3.19338 4.59966 3.24857 4.56278 3.30931 4.53762C3.37005 4.51246 3.43515 4.49951 3.50089 4.49951C3.56664 4.49951 3.63174 4.51246 3.69248 4.53762C3.75322 4.56278 3.80841 4.59966 3.85489 4.64614C3.90138 4.69263 3.93826 4.74782 3.96342 4.80856C3.98858 4.8693 4.00153 4.9344 4.00153 5.00014C4.00153 5.06589 3.98858 5.13099 3.96342 5.19173C3.93826 5.25247 3.90138 5.30766 3.85489 5.35414L1.70789 7.50014H10.5009C10.6335 7.50014 10.7607 7.55282 10.8544 7.64659C10.9482 7.74036 11.0009 7.86754 11.0009 8.00014C11.0009 8.13275 10.9482 8.25993 10.8544 8.3537C10.7607 8.44747 10.6335 8.50014 10.5009 8.50014H1.70789L3.85489 10.6461C3.90138 10.6926 3.93826 10.7478 3.96342 10.8086C3.98858 10.8693 4.00153 10.9344 4.00153 11.0001C4.00153 11.0659 3.98858 11.131 3.96342 11.1917C3.93826 11.2525 3.90138 11.3077 3.85489 11.3541C3.80841 11.4006 3.75322 11.4375 3.69248 11.4627C3.63174 11.4878 3.56664 11.5008 3.50089 11.5008C3.43515 11.5008 3.37005 11.4878 3.30931 11.4627C3.24857 11.4375 3.19338 11.4006 3.14689 11.3541L0.146894 8.35414Z"
      />
    </symbol>
  </defs>
</svg>
